<?xml version="1.0" encoding="UTF-8"?>
<svg width="16px" height="14px" viewBox="0 0 16 14" version="1.1" xmlns="http://www.w3.org/2000/svg" xmlns:xlink="http://www.w3.org/1999/xlink">
    <!-- Generator: Sketch 52.2 (67145) - http://www.bohemiancoding.com/sketch -->
    <title></title>
    <desc>Created with Sketch.</desc>
    <g id="Symbols" stroke="none" stroke-width="1" fill="none" fill-rule="evenodd">
        <g id="hero-image-cta" transform="translate(-300.000000, -413.000000)" fill="#FFFFFF">
            <g id="">
                <path d="M314.857161,424.714285 L314.857161,417.857134 C314.66966,418.07142 314.464303,418.267849 314.241088,418.446421 C312.964301,419.428565 311.678585,420.428566 310.437512,421.464281 C309.767869,422.026782 308.937511,422.714283 308.008938,422.714283 L307.991081,422.714283 C307.062508,422.714283 306.23215,422.026782 305.562507,421.464281 C304.321434,420.428566 303.035718,419.428565 301.758931,418.446421 C301.535716,418.267849 301.330359,418.07142 301.142859,417.857134 L301.142859,424.714285 C301.142859,424.866071 301.276787,425 301.428573,425 L314.571446,425 C314.723232,425 314.857161,424.866071 314.857161,424.714285 Z M314.857161,415.330346 C314.857161,415.107131 314.910732,414.714273 314.571446,414.714273 L301.428573,414.714273 C301.276787,414.714273 301.142859,414.848202 301.142859,414.999988 C301.142859,416.017846 301.651788,416.901776 302.45536,417.535705 C303.65179,418.473207 304.84822,419.419636 306.035721,420.366066 C306.508936,420.749995 307.36608,421.571424 307.991081,421.571424 L308.008938,421.571424 C308.633939,421.571424 309.491083,420.749995 309.964298,420.366066 C311.151799,419.419636 312.348229,418.473207 313.544659,417.535705 C314.125017,417.080348 314.857161,416.089275 314.857161,415.330346 Z M316.000019,414.999988 L316.000019,424.714285 C316.000019,425.500001 315.357161,426.142859 314.571446,426.142859 L301.428573,426.142859 C300.642858,426.142859 300,425.500001 300,424.714285 L300,414.999988 C300,414.214273 300.642858,413.571415 301.428573,413.571415 L314.571446,413.571415 C315.357161,413.571415 316.000019,414.214273 316.000019,414.999988 Z"></path>
            </g>
        </g>
    </g>
</svg>