<?xml version="1.0" encoding="UTF-8"?>
<svg width="13px" height="13px" viewBox="0 0 13 13" version="1.1" xmlns="http://www.w3.org/2000/svg" xmlns:xlink="http://www.w3.org/1999/xlink">
    <!-- Generator: Sketch 52.2 (67145) - http://www.bohemiancoding.com/sketch -->
    <title></title>
    <desc>Created with Sketch.</desc>
    <g id="Symbols" stroke="none" stroke-width="1" fill="none" fill-rule="evenodd">
        <g id="hero-image-cta" transform="translate(-159.000000, -465.000000)" fill="#FFFFFF">
            <path d="M171.785729,475.35714 C171.785729,475.678569 171.642872,476.303569 171.508943,476.598213 C171.321443,477.035713 170.821442,477.321428 170.419656,477.544642 C169.89287,477.830357 169.357155,478 168.75894,478 C167.928582,478 167.178581,477.660714 166.419651,477.383928 C165.875008,477.187499 165.348222,476.946427 164.85715,476.642856 C163.339291,475.705354 161.508931,473.874995 160.57143,472.357136 C160.267858,471.866064 160.026787,471.339278 159.830358,470.794634 C159.553572,470.035705 159.214286,469.285704 159.214286,468.455346 C159.214286,467.857131 159.383929,467.321416 159.669643,466.794629 C159.892858,466.392843 160.178573,465.892843 160.616073,465.705342 C160.910716,465.571414 161.535717,465.428556 161.857146,465.428556 C161.919646,465.428556 161.982146,465.428556 162.044646,465.455342 C162.232146,465.517842 162.428575,465.955343 162.517861,466.133914 C162.803576,466.642844 163.080362,467.160701 163.375005,467.660702 C163.517862,467.892845 163.78572,468.17856 163.78572,468.455346 C163.78572,468.999989 162.169646,469.794633 162.169646,470.276777 C162.169646,470.517848 162.392861,470.830349 162.517861,471.044635 C163.419648,472.669637 164.544649,473.794638 166.169651,474.696425 C166.383937,474.821425 166.696437,475.044639 166.937509,475.044639 C167.419653,475.044639 168.214296,473.428566 168.75894,473.428566 C169.035726,473.428566 169.321441,473.696423 169.553584,473.839281 C170.053584,474.133924 170.571442,474.41071 171.080371,474.696425 C171.258943,474.78571 171.696443,474.982139 171.758944,475.169639 C171.785729,475.23214 171.785729,475.29464 171.785729,475.35714 Z" id=""></path>
        </g>
    </g>
</svg>